<?xml version="1.0" encoding="utf-8"?>
<!-- Generator: Adobe Illustrator 25.2.1, SVG Export Plug-In . SVG Version: 6.00 Build 0)  -->
<svg version="1.1" id="Layer_1" xmlns="http://www.w3.org/2000/svg" xmlns:xlink="http://www.w3.org/1999/xlink" x="0px" y="0px"
	 width="32px" height="26px" viewBox="0 0 32 26" style="enable-background:new 0 0 32 26;" xml:space="preserve">
<g>
	<path d="M19.9,12.2c0,2.1-1.7,3.9-3.9,3.9s-3.9-1.7-3.9-3.9s1.7-3.9,3.9-3.9S19.9,10.1,19.9,12.2z M31.5,11.6
		c0,0-5.5,10.9-15.5,10.9c-9.3,0-15.5-10.9-15.5-10.9s5.7-9.8,15.5-9.8C26,1.9,31.5,11.6,31.5,11.6z M22.5,12.2
		c0-3.6-2.9-6.5-6.5-6.5s-6.5,2.9-6.5,6.5s2.9,6.5,6.5,6.5S22.5,15.8,22.5,12.2z"/>
</g>
</svg>
