<?xml version="1.0" encoding="UTF-8"?>
<svg width="32px" height="26px" viewBox="0 0 32 26" version="1.1" xmlns="http://www.w3.org/2000/svg" xmlns:xlink="http://www.w3.org/1999/xlink">
    <title>3. icons/3.6 ios/eye</title>
    <defs>
        <path d="M16.8863636,9.33333333 C20.7702273,9.33333333 23.9223485,12.32 23.9223485,16 C23.9223485,16.8666667 23.7394129,17.68 23.4157576,18.44 L27.5247727,22.3333333 C29.6496402,20.6533333 31.3242045,18.48 32.3514583,16 C29.9170076,10.1466667 23.9082765,6 16.8722917,6 C14.9022159,6 13.016572,6.33333333 11.2716477,6.93333333 L14.3111932,9.81333333 C15.1132955,9.50666667 15.9716856,9.33333333 16.8863636,9.33333333 Z M2.81439394,5.69333333 L6.02280303,8.73333333 L6.67011364,9.34666667 C4.33416667,11.0666667 2.50481061,13.36 1.40719697,16 C3.84164773,21.8533333 9.85037879,26 16.8863636,26 C19.0675189,26 21.1501705,25.6 23.0498864,24.88 L23.6409091,25.44 L27.7639962,29.3333333 L29.5511364,27.64 L4.60153409,4 L2.81439394,5.69333333 Z M10.5961932,13.0666667 L12.7773485,15.1333333 C12.7069886,15.4133333 12.6647727,15.7066667 12.6647727,16 C12.6647727,18.2133333 14.5504167,20 16.8863636,20 C17.195947,20 17.5055303,19.96 17.8010417,19.8933333 L19.982197,21.96 C19.039375,22.4 17.9980492,22.6666667 16.8863636,22.6666667 C13.0025,22.6666667 9.85037879,19.68 9.85037879,16 C9.85037879,14.9466667 10.1318182,13.96 10.5961932,13.0666667 L10.5961932,13.0666667 Z M16.6612121,12.0266667 L21.0938826,16.2266667 L21.1220265,16.0133333 C21.1220265,13.8 19.2363826,12.0133333 16.9004356,12.0133333 L16.6612121,12.0266667 Z" id="path-1"></path>
    </defs>
    <g id="GRAP-2516" stroke="none" stroke-width="1" fill="none" fill-rule="evenodd">
        <g id="GRAP-2516-SEO-Product-Page---Password-Generator" transform="translate(-742.000000, -309.000000)">
            <g id="middle-aligned" transform="translate(95.000000, 144.000000)">
                <g id="content" transform="translate(0.000000, 111.000000)">
                    <g id="strong" transform="translate(34.000000, 32.000000)">
                        <g id="3.-icons/3.6-ios/eye" transform="translate(612.130682, 18.000000)">
                            <mask id="mask-2" fill="white">
                                <use xlink:href="#path-1"></use>
                            </mask>
                            <use id="Shape" fill="#000000" fill-rule="nonzero" xlink:href="#path-1"></use>
                            <g id="Group" mask="url(#mask-2)" fill="#000000">
                                <g id="Colors/Black">
                                    <rect x="0" y="0" width="33.7727273" height="32"></rect>
                                </g>
                            </g>
                        </g>
                    </g>
                </g>
            </g>
        </g>
    </g>
</svg>