<?xml version="1.0" encoding="UTF-8"?>
<svg width="39px" height="40px" viewBox="0 0 39 40" version="1.1" xmlns="http://www.w3.org/2000/svg" xmlns:xlink="http://www.w3.org/1999/xlink">
    <title>Ico Dice</title>
    <defs>
        <path d="M20.3721354,0 L1.66666667,5.77799546 L1.66666667,29.8422857 L20.3721354,39.4739229 L39.0776042,29.8422857 L39.0776042,5.77799546 L20.3721354,0 L20.3721354,0 Z M33.2844792,6.16163265 L20.3469792,10.6678277 L6.27505208,6.528 L20.3721354,2.17353288 L33.2844792,6.16163265 L33.2844792,6.16163265 Z M3.68875,7.93302494 L19.3610938,12.5440726 L19.3610938,36.6256327 L3.68875,28.5556825 L3.68875,7.93302494 L3.68875,7.93302494 Z M37.0555208,28.5556825 L21.3831771,36.6256327 L21.3831771,12.5058322 L36.6290625,7.19535601 L37.0555208,7.32734694 L37.0555208,28.5556825 L37.0555208,28.5556825 Z M5.5507864,22.4042892 C6.44903683,21.8161209 7.74571402,22.2075314 8.44699596,23.278529 C9.1482779,24.3495266 8.98860339,25.6945463 8.09035296,26.2827145 C7.19210253,26.8708828 5.89542534,26.4794724 5.19414339,25.4084748 C4.49286145,24.3374772 4.65253596,22.9924575 5.5507864,22.4042892 Z M30.3316584,21.9704756 C30.8666318,20.7566044 31.992199,20.077493 32.845683,20.4536378 C33.6991669,20.8297826 33.9573707,22.1187451 33.4223972,23.3326163 C32.8874237,24.5464874 31.7618566,25.2255989 30.9083726,24.8494541 C30.0548886,24.4733093 29.7966849,23.1843467 30.3316584,21.9704756 Z M9.91000515,19.3983062 C10.8082556,18.8101379 12.1049328,19.2015484 12.8062147,20.272546 C13.5074967,21.3435436 13.3478221,22.6885632 12.4495717,23.2767315 C11.5513213,23.8648998 10.2546441,23.4734893 9.55336214,22.4024918 C8.8520802,21.3314942 9.01175471,19.9864745 9.91000515,19.3983062 Z M25.343566,18.6802007 C25.8785395,17.4663296 27.0036012,16.7869954 27.8564617,17.1628655 C28.7093223,17.5387355 28.9670206,18.8274753 28.4320471,20.0413465 C27.8970737,21.2552176 26.7720119,21.9345518 25.9191514,21.5586818 C25.0662908,21.1828117 24.8085925,19.8940719 25.343566,18.6802007 Z M13.7380354,16.1499815 C14.6098818,15.5792748 15.9019629,16.0107809 16.6239793,17.1137773 C17.3459958,18.2167737 17.2245346,19.5735782 16.3526881,20.1442848 C15.4808417,20.7149915 14.1887606,20.2834854 13.4667442,19.180489 C12.7447278,18.0774926 12.866189,16.7206882 13.7380354,16.1499815 Z M20.0303646,4.50619501 C21.5659175,4.50619501 22.8107292,5.14684406 22.8107292,5.93712472 C22.8107292,6.72740537 21.5659175,7.36805442 20.0303646,7.36805442 C18.4948116,7.36805442 17.25,6.72740537 17.25,5.93712472 C17.25,5.14684406 18.4948116,4.50619501 20.0303646,4.50619501 Z" id="path-1"></path>
    </defs>
    <g id="GRAP-2516" stroke="none" stroke-width="1" fill="none" fill-rule="evenodd">
        <g id="GRAP-2516-SEO-Product-Page---Password-Generator" transform="translate(-815.000000, -301.000000)">
            <g id="middle-aligned" transform="translate(95.000000, 144.000000)">
                <g id="content" transform="translate(0.000000, 111.000000)">
                    <g id="strong" transform="translate(34.000000, 32.000000)">
                        <g id="Ico-Dice" transform="translate(685.000000, 14.000000)">
                            <mask id="mask-2" fill="white">
                                <use xlink:href="#path-1"></use>
                            </mask>
                            <use id="Shape" fill="#000000" xlink:href="#path-1"></use>
                            <g id="Group" mask="url(#mask-2)" fill="#000000">
                                <g id="Colors/Black">
                                    <rect x="0" y="0" width="40" height="40"></rect>
                                </g>
                            </g>
                        </g>
                    </g>
                </g>
            </g>
        </g>
    </g>
</svg>